<?xml version="1.0" encoding="UTF-8"?>
<svg id="Camada_1" data-name="Camada 1" xmlns="http://www.w3.org/2000/svg" viewBox="0 0 1000 1000">
  <defs>
    <style>
      .cls-1 {
        fill: #c8b991;
      }

      .cls-2 {
        fill: #f8f6f0;
      }
    </style>
  </defs>
  <g>
    <path class="cls-2" d="M509.26,324.76c-95.35,0-172.92,77.57-172.92,172.91s77.57,172.91,172.92,172.91,172.92-77.57,172.92-172.91v-7.47h-165.45v-165.44h-7.47ZM667.09,505.14l-.1,1.85c-4.88,83.35-74.17,148.64-157.73,148.64s-157.97-70.86-157.97-157.97,65.3-152.81,148.65-157.69l1.85-.11v165.27h165.3Z"/>
    <path class="cls-2" d="M545.96,326.39l-7.66-1.08v143.32h143.31l-1.08-7.66c-9.82-69.4-65.16-124.74-134.57-134.58ZM551.73,455.2v-114.22l2.11.45c55.92,11.92,99.74,55.75,111.65,111.66l.45,2.11h-114.21Z"/>
    <path class="cls-2" d="M509.26,704.01c-193.87,0-357.67-170.91-388.54-205.17l-1.05-1.17,1.05-1.17c30.81-34.26,194.39-205.17,388.54-205.17,86.34,0,176.65,33.24,268.44,98.8h26.29c-69.26-52.64-175.39-113.74-294.73-113.74-221.77,0-397.86,207.65-405.25,216.49l-4.01,4.79,4,4.79c7.4,8.84,183.81,216.49,405.26,216.49,90.64,0,184.13-34.09,277.95-101.33h-27.45c-85.74,57.32-170.01,86.39-250.5,86.39Z"/>
  </g>
  <path class="cls-1" d="M880.96,521.94l-47.85,49.23c-2.97,3.05-5.66,5.83-7.99,8.23l-75.26-77.62,75.18-72.54,74.96,73.31c-4.84,4.79-11,11.13-19.04,19.39Z"/>
</svg>