<?xml version="1.0" encoding="UTF-8"?>
<svg id="Camada_1" data-name="Camada 1" xmlns="http://www.w3.org/2000/svg" viewBox="0 0 1000 1000">
  <defs>
    <style>
      .cls-1 {
        fill: #c8b991;
      }

      .cls-2 {
        fill: #f8f6f0;
        fill-rule: evenodd;
      }
    </style>
  </defs>
  <g>
    <path class="cls-2" d="M550.36,546.36c0-27.82-22.63-50.45-50.46-50.45s-50.46,22.63-50.46,50.45c0,15.94,7.19,30.48,19.73,39.89l.65.49.06.94-15.61,129.71c-.2,2.23.54,4.52,1.97,6.1,1.52,1.68,3.7,2.65,5.99,2.65h76.72c2.24,0,4.12-.83,5.59-2.45,1.51-1.71,2.27-4.03,1.97-6.06l-15.51-131.34.6-.49c11.96-9.74,18.73-24.07,18.73-39.43ZM530.03,710.44h-61.31l2.62-2.62,15.12-124.67v-1.18c-.01-3.91-2.58-7.11-6.26-7.78l-.72-.31c-8.82-6.43-14.09-16.8-14.09-27.73,0-19.16,15.59-34.75,34.75-34.75s34.76,15.59,34.76,34.75c0,12.17-6.07,23.18-16.23,29.44-2.58,1.59-3.97,4.52-3.64,7.63l15,127.23Z"/>
    <path class="cls-2" d="M772.91,377.71h-91.83v-99.06c0-99.79-81.18-180.97-180.97-180.97s-180.97,81.18-180.97,180.97v99.06h-92.03c-4.38,0-7.95,3.57-7.95,7.95v450.31c0,4.38,3.57,7.95,7.95,7.95h186.68v-15.7h-178.72v-434.6h91.85c.06,0,.11.04.18.04h346.25c.06,0,.11-.03.18-.04h91.67v434.6h-173.41v15.7h181.34c4.35,0,7.75-3.49,7.75-7.95v-450.31c0-4.38-3.57-7.95-7.95-7.95ZM334.83,377.59v-98.94c0-91.14,74.14-165.28,165.28-165.28s165.28,74.14,165.28,165.28v99.06h-330.23v-.12h-.32Z"/>
  </g>
  <path class="cls-1" d="M547.28,852.02l-38.02,39.12c-2.36,2.43-4.5,4.63-6.35,6.54l-59.8-61.67,59.74-57.64,59.56,58.25c-3.84,3.81-8.74,8.84-15.13,15.41Z"/>
</svg>