<?xml version="1.0" encoding="UTF-8"?>
<svg id="Camada_1" data-name="Camada 1" xmlns="http://www.w3.org/2000/svg" viewBox="0 0 1000 1000">
  <defs>
    <style>
      .cls-1 {
        fill: #c8b991;
      }

      .cls-2 {
        fill: #f8f6f0;
      }
    </style>
  </defs>
  <path class="cls-2" d="M665.05,316.68h-397.48s-31.2.51-52.1-20.03c-12.18-11.97-18.36-29-18.36-50.61s6.14-38.52,18.23-50.49c19.56-19.35,49.03-20.13,52.33-20.15h362.06v44.15c0,3.58,2.14,6.78,5.45,8.15,3.29,1.35,7.13.58,9.61-1.91l52.97-52.97c1.67-1.67,2.58-3.88,2.58-6.24s-.92-4.57-2.58-6.24l-52.97-52.97c-2.54-2.53-6.31-3.29-9.61-1.91-3.32,1.37-5.45,4.57-5.45,8.15v44.15h-361.81c-.51-.01-38.61-.7-64.83,25.09-15.68,15.42-23.63,36.68-23.63,63.2s7.95,47.77,23.63,63.2c26.26,25.83,64.22,25.07,64.61,25.09h397.35c2.88,0,70.63.8,70.63,70.64s-93.15,70.63-97.11,70.64h-185.42c-30.53,0-88.28,18.45-88.28,88.28s57.75,88.29,88.28,88.29h185.41c2.88,0,70.63.8,70.63,70.64s-67.74,70.62-70.63,70.63h-362.49l-.18-1.56c-5.24-44.41-42.9-77.9-87.62-77.9-48.68,0-88.28,39.6-88.28,88.28s39.6,88.29,88.28,88.29c44.72,0,82.38-33.49,87.62-77.9l.18-1.56h362.48c30.53,0,88.28-18.45,88.28-88.28s-57.75-88.29-88.28-88.29h-185.41c-2.88,0-70.63-.8-70.63-70.64s67.74-70.62,70.63-70.63h185.42c39.7,0,114.77-18.45,114.77-88.29s-57.75-88.29-88.28-88.29ZM647.39,134.92l31.67,31.67-31.67,31.67v-63.33ZM188.28,872.91c-38.94,0-70.63-31.69-70.63-70.64s31.69-70.63,70.63-70.63,70.63,31.68,70.63,70.63-31.69,70.64-70.63,70.64Z"/>
  <path class="cls-1" d="M882.84,190.55l-43.12,44.36c-2.67,2.75-5.1,5.25-7.2,7.41l-67.81-69.93,67.74-65.36,67.54,66.06c-4.36,4.31-9.92,10.03-17.16,17.47Z"/>
</svg>