<?xml version="1.0" encoding="UTF-8"?>
<svg id="Camada_1" data-name="Camada 1" xmlns="http://www.w3.org/2000/svg" viewBox="0 0 1000 1000">
  <defs>
    <style>
      .cls-1 {
        fill: #c8b991;
      }

      .cls-2 {
        fill: #f8f6f0;
      }
    </style>
  </defs>
  <path class="cls-2" d="M782.84,226.68c-75.55-75.55-176-117.17-282.83-117.17s-207.28,41.59-282.83,117.14c-75.55,75.59-117.17,176.03-117.17,282.86s41.59,207.28,117.14,282.83c75.59,75.55,176,117.17,282.86,117.17s207.28-41.59,282.83-117.14c75.55-75.55,117.14-176,117.14-282.83.04-106.86-41.59-207.3-117.14-282.86ZM883.47,501.34h-175.32c-.65-61.19-8.42-120.08-22.57-173.1,44.06-9.99,86.73-23.54,127.24-40.48,43.06,60.58,68.99,134.12,70.64,213.58ZM802.69,274.15c-38.76,15.94-79.53,28.69-121.58,38.19-8.81-29.52-19.6-57.03-32.31-81.82-23.71-46.14-52.37-79.64-83.83-99.05,96.08,16.44,180.09,68.74,237.72,142.69ZM508.19,128.74c47.21,3.98,91.71,42.38,126.06,109.19,12.14,23.64,22.46,49.87,30.92,78.02-51.08,10.46-103.85,16.08-156.98,16.59h0s0-203.79,0-203.79ZM435.11,131.43h0c-31.45,19.38-60.15,52.91-83.83,99.06-12.72,24.79-23.54,52.34-32.31,81.82-42.06-9.49-82.82-22.25-121.58-38.19,57.6-73.9,141.6-126.21,237.72-142.69ZM491.86,128.74v203.8c-53.13-.54-105.89-6.16-156.98-16.59,8.45-28.16,18.77-54.38,30.92-78.02,34.35-66.85,78.85-105.21,126.06-109.19ZM187.21,287.76c40.52,16.91,83.18,30.49,127.24,40.48-14.15,53.02-21.92,111.91-22.57,173.1H116.57c1.68-79.46,27.58-153,70.64-213.58ZM116.57,517.67h175.32c.64,61.19,8.42,120.08,22.57,173.1-44.06,9.99-86.73,23.54-127.24,40.48-43.06-60.58-69-134.12-70.64-213.58ZM197.35,744.87c38.76-15.94,79.53-28.69,121.58-38.19,8.81,29.52,19.6,57.03,32.31,81.82,23.71,46.14,52.38,79.63,83.83,99.05-96.08-16.44-180.08-68.75-237.72-142.69ZM491.85,890.27c-47.21-3.98-91.71-42.38-126.06-109.19-12.14-23.64-22.46-49.87-30.91-78.02,51.08-10.42,103.85-16.05,156.97-16.59h0s0,203.79,0,203.79ZM491.85,670.14c-54.63.54-108.9,6.34-161.45,17.16-13.9-51.84-21.53-109.54-22.18-169.62h0s77.71,0,77.71,0v-16.33h-77.7c.64-60.08,8.28-117.83,22.17-169.62,52.55,10.82,106.82,16.62,161.45,17.16h0s0,46.56,0,46.56h16.33v-46.56c54.63-.54,108.9-6.34,161.45-17.16,13.9,51.84,21.57,109.58,22.17,169.62h-77.74v16.33h77.74c-.65,60.08-8.28,117.83-22.18,169.66-52.55-10.85-106.82-16.66-161.45-17.19v-46.55h-16.33v46.56ZM508.18,686.47c53.13.54,105.89,6.16,156.97,16.59-8.45,28.16-18.77,54.38-30.91,78.02-34.36,66.85-78.85,105.22-126.06,109.19v-203.8ZM564.93,887.59h0c31.45-19.38,60.15-52.91,83.83-99.06,12.75-24.79,23.54-52.34,32.31-81.82,42.06,9.49,82.82,22.25,121.59,38.19-57.6,73.9-141.61,126.21-237.72,142.69ZM812.83,731.25c-40.52-16.91-83.18-30.49-127.24-40.48,14.15-53.02,21.92-111.91,22.57-173.1h175.32c-1.68,79.46-27.58,153.01-70.64,213.58Z"/>
  <path class="cls-1" d="M557.07,527.46l-48.74,50.14c-3.02,3.11-5.76,5.94-8.14,8.38l-76.65-79.05,76.58-73.89,76.35,74.67c-4.93,4.88-11.21,11.34-19.4,19.75Z"/>
</svg>