<?xml version="1.0" encoding="UTF-8"?>
<svg id="Camada_1" data-name="Camada 1" xmlns="http://www.w3.org/2000/svg" viewBox="0 0 1000 1000">
  <defs>
    <style>
      .cls-1 {
        fill: #c8b991;
      }

      .cls-2 {
        fill: #f8f6f0;
      }
    </style>
  </defs>
  <g>
    <rect class="cls-2" x="280.17" y="118.87" width="15.74" height="132.31"/>
    <rect class="cls-2" x="704.09" y="118.87" width="15.74" height="132.31"/>
    <polygon class="cls-2" points="232.32 198.2 232.32 182.46 100 182.46 100 876.47 900 876.47 900 182.46 767.68 182.46 767.68 198.2 884.26 198.2 884.26 860.74 115.74 860.74 115.74 198.2 232.32 198.2"/>
    <path class="cls-2" d="M195.39,352.03v164.11h164.11v-164.11h-164.11ZM343.76,500.4h-132.64v-132.64h132.64v132.64Z"/>
    <path class="cls-2" d="M417.94,352.03v164.11h164.11v-164.11h-164.11ZM566.32,500.4h-132.64v-132.64h132.64v132.64Z"/>
    <path class="cls-2" d="M640.51,352.03v164.11h164.11v-164.11h-164.11ZM788.88,500.4h-132.63v-132.64h132.63v132.64Z"/>
    <path class="cls-2" d="M195.39,574.59v164.11h164.11v-164.11h-164.11ZM343.76,722.96h-132.64v-132.64h132.64v132.64Z"/>
    <path class="cls-2" d="M417.94,574.59v164.11h164.11v-164.11h-164.11ZM566.32,722.96h-132.64v-132.64h132.64v132.64Z"/>
    <path class="cls-2" d="M640.51,574.59v164.11h164.11v-164.11h-164.11ZM788.88,722.96h-132.63v-132.64h132.63v132.64Z"/>
    <rect class="cls-2" x="343.76" y="182.46" width="51.5" height="15.74"/>
    <rect class="cls-2" x="604.74" y="182.46" width="51.5" height="15.74"/>
  </g>
  <path class="cls-1" d="M551.94,207.58l-44.36,45.64c-2.75,2.83-5.24,5.41-7.41,7.63l-69.77-71.96,69.7-67.25,69.49,67.96c-4.49,4.44-10.2,10.32-17.66,17.98Z"/>
</svg>