<?xml version="1.0" encoding="UTF-8"?>
<svg id="Camada_1" data-name="Camada 1" xmlns="http://www.w3.org/2000/svg" viewBox="0 0 1000 1000">
  <defs>
    <style>
      .cls-1 {
        fill: #c8b991;
      }

      .cls-2 {
        fill: #f8f6f0;
      }
    </style>
  </defs>
  <path class="cls-2" d="M734.98,199.59l-97.46,54.61,20.58,36.72-4.32-1.28c-40.76-12.21-112.63-30.12-136.03-12.84-2.22,1.64-5.11,3.85-8.34,6.38l-.77.6-.9-.28c-9.99-5.45-27.3-12.09-53.19-12.9-29.9-.94-64.54,5.98-102.95,20.55l-4.8,1.82,18.65-32.36-96.79-55.79L97.95,500.91l96.8,55.79,11.54-20,1.42,3.44c4.1,9.94,9.15,19.42,13.85,26.01l.86,1.2-.99,1.09c-17.67,19.42-22.45,44.76-12.18,64.56,9.05,17.47,27.93,27.9,50.51,27.9,4.18,0,8.73-.48,13.92-1.47l3.38-.64-1.35,3.15c-5.89,13.64-5.98,27.23-.24,38.27,7.59,14.67,24.44,23.43,45.08,23.43,8.51,0,17.5-1.58,26.72-4.68l3.15-1.06-.8,3.24c-2.36,9.78-1.33,19.31,2.97,27.57,10.08,19.46,35.46,27.01,61.72,18.35l2.49-.82-.08,2.61c-.18,5.04.81,9.68,2.93,13.79,5.22,10.09,16.31,16.11,29.67,16.11,7.66,0,15.54-1.99,22.77-5.76,7.15-3.71,13.27-9.03,17.71-15.39l.91-1.31,1.42.72c31.54,16.22,51.76,22.84,69.81,22.84,4.97,0,9.89-.5,15.04-1.52,26.86-5.37,31.19-27.76,31.81-37.14l.13-1.92,1.92.23c3.62.43,6.72.64,9.47.64,11.42,0,20.74-2.9,27.7-8.62,9.14-7.52,19.43-31.95,21.44-46.68l.24-1.78,1.79.21c3.66.45,6.67.66,9.21.66,13.55,0,21.71-4.01,25.38-6.4,13.89-9.04,17.1-30.69,17.79-42.78l.11-1.92,1.91.2c3.15.32,5.66.46,8.16.46,11.15,0,31.06-2.39,39.04-18.4l1.96-3.91c8.25-16.32,18.52-36.63,3.43-45.55-1.64-1.13-5.16-4.23-12.51-11.02l-1.17-1.09.91-1.3c8.4-11.96,16.94-29.89,22.63-42.83l1.47-3.37,14.76,26.35,97.46-54.61-167.07-298.17ZM117.66,495.61l156.27-271.11,71.77,41.38-.72,1.25-155.55,269.85-71.78-41.37ZM647.51,612.17l1.27.8c12.91,8.1,44.59,27.75,59.78,35.32l.84.41.16.9c-.25,13.94-3.37,30.64-11.35,35.84-2.83,1.82-29.39,16.55-90.16-25.89l-1.22-.85-8.38,11.75,1.24.87c19.45,13.6,37.82,23.09,54.6,28.22l1.42.43-.14,1.5c-1.15,12.37-11.26,34.42-16.73,38.93-8.51,7-24.13,7.03-46.45.09-18.39-5.72-36.98-14.83-49.34-21.48l-1.31-.7-6.97,12.64,1.33.72c21.56,11.65,40.78,19.83,57.1,24.32l1.07.3.24,1.02c.2,18.83-10.95,25.02-20.36,26.9-4.17.84-8.11,1.25-12.05,1.25-15.54,0-34.92-6.59-64.8-22.03l-.92-.48-.08-.99c.97-6.87.15-12.68-2.49-17.76-5.24-10.09-16.34-16.11-29.69-16.11-1.5,0-3.02.14-4.57.3l-2.78.27.85-2.65c3.58-11.2,3.01-21.89-1.66-30.92-7.11-13.73-22.35-21.93-40.75-21.93-3.81,0-7.93.45-12.59,1.37l-3.27.64,1.21-3.11c4.97-12.92,4.65-25.47-.95-36.27-7.6-14.66-24.46-23.41-45.09-23.41-6.78,0-13.82.95-20.92,2.83l-3.44.9,1.25-3.31c5.59-14.82,5.08-29.88-1.43-42.41-9.05-17.47-27.94-27.9-50.52-27.9-12.15,0-24.56,3.11-35.92,8.99-2.73,1.41-5.58,3.16-8.73,5.33l-1.56,1.08-1.03-1.59c-5.56-8.71-12.95-23.61-16.04-35.76l-.15-.58.22-.56,118.47-205.58.42-.19c16.74-7.66,103.04-44.71,158.29-21.31l2.83,1.2-2.4,1.92c-48.39,38.63-139.75,114.08-145.22,118.68l-.13.12c-8.19,8.74-18.7,30.87.15,52.07,11.85,13.33,27.28,16.13,38.14,16.13,10.03,0,18.1-2.32,20.33-3.03l.21-.07,126.84-86.21.4-.02c2.99-.17,11.11-.54,21.88-.23l.58.02.48.36c128.73,126.04,206.44,200.57,213.23,204.47l.59.33.18.53c1.31,3.66-2.41,12.26-9.26,25.87l-2.12,4.21c-5.91,11.86-31.48,11.76-41.14,8.55-7.43-2.49-42.82-24.07-62.55-36.44l-1.27-.79-7.71,12.22ZM250.22,564.26c9.3-4.83,19.42-7.38,29.26-7.38,17.09,0,31.19,7.52,37.7,20.1,5.05,9.75,5.06,21.46.04,32.98-3.39,7.83-9.18,15.22-16.75,21.38-1.13.86-2.3,1.76-3.42,2.69-3.13,2.21-5.62,3.77-8.05,5.03-9.29,4.83-19.4,7.38-29.25,7.38-17.08,0-31.18-7.51-37.7-20.1-10.69-20.63,1.95-48.48,28.17-62.09ZM306.61,645.08l.7-.56c4.71-3.82,8.98-6.66,13.41-8.96,11.04-5.72,22.74-8.75,33.82-8.75,15.12,0,27.19,5.84,32.28,15.62,9.11,17.59-5.76,44.15-32.46,58-11.05,5.72-22.74,8.75-33.81,8.75-15.13,0-27.2-5.84-32.28-15.63-7.1-13.69.45-33.64,18.34-48.49ZM366.21,717.39c4.51-9.48,12.9-17.77,23.64-23.34,8.17-4.24,16.95-6.48,25.38-6.48,12.9,0,23.34,5.28,27.94,14.13,5.65,10.91,1.39,26.17-10.53,37.91l-1.14.99c-.37.32-.75.64-1.06.94-3.91,3.45-7.74,6.12-11.71,8.18h0c-8.17,4.24-16.94,6.48-25.37,6.48-12.91,0-23.36-5.29-27.95-14.14-3.68-7.07-3.39-15.83.81-24.65ZM584.8,395.03c16.86,2.19,31.84,5.88,44.53,10.98l1.35.54,5.74-13.26-1.43-.58c-43.96-17.76-97.83-14.33-103.84-13.88l-1.87.16-127.77,87.03c-2.3.64-9.35,2.37-17.39,1.92-10.24-.6-18.54-4.39-24.64-11.25-13.52-15.22-3.37-29.17-1.07-31.94l.33-.33c23.62-19.5,141.91-117.04,167.58-136.01,17.7-13.05,96.15,5.82,141.44,20.78l.53.17.35.44,112.2,200.21-.33.82c-6.23,15.41-16.55,37.99-25.14,50.93l-1.2,1.8-1.58-1.47c-38.64-36.53-112.79-108.63-169.3-163.93l-3.91-3.83,5.43.7ZM433.68,760.14c3-5.47,8.1-10.26,14.36-13.5,5.21-2.7,10.79-4.13,16.11-4.13,7.85,0,14.16,3.11,16.87,8.31,4.7,9.1-2.44,22.56-15.58,29.39h0c-4.9,2.55-10.55,3.95-15.91,3.95-1.18,0-2.31-.07-3.37-.2-6.47-.74-11.46-3.64-13.69-7.94-2.35-4.53-1.92-10.17,1.21-15.87ZM729.44,219.26l.89,1.58,152.06,271.39-72.26,40.5-.9-1.58-152.07-271.4,72.28-40.49Z"/>
  <path class="cls-1" d="M548.4,586.57l-35.15,36.16c-2.18,2.24-4.16,4.28-5.87,6.04l-55.28-57.01,55.23-53.28,55.06,53.85c-3.55,3.52-8.08,8.17-13.99,14.24Z"/>
</svg>