<?xml version="1.0" encoding="UTF-8"?>
<svg id="Camada_1" data-name="Camada 1" xmlns="http://www.w3.org/2000/svg" viewBox="0 0 1000 1000">
  <defs>
    <style>
      .cls-1 {
        fill: #c8b991;
      }

      .cls-2 {
        fill: #f8f6f0;
      }
    </style>
  </defs>
  <path class="cls-2" d="M877.78,723.39l-176.81-176.83c-3.53-3.48-9.24-3.57-13.01-.2l-100.46,92.09-5.23-3.05c-49.72-29.04-93-61.89-128.66-97.65-34.93-35.02-66.77-77.18-97.34-128.89l-3.09-5.23.62-.68,91.31-99.64c3.33-3.69,3.17-9.38-.38-12.97l-176.59-176.59c-1.88-1.93-4.33-2.99-6.91-2.99l-1.03.05c-2.03.22-4.02,1.21-5.57,2.78l-109.06,111.83c-16.83,17.26-26.1,42.68-26.1,71.58,0,98.91,80.88,243.69,206.04,368.85,65.8,65.8,137.63,120.11,207.84,157.16v-22.22c-66.27-36.35-135.35-88.96-194.59-148.2-117.97-117.97-200.35-264.2-200.35-355.6,0-24.09,7.2-44.21,20.82-58.19l102.43-105.06,163.56,163.56-.81.88-90.32,98.46c-2.89,3.08-3.45,7.59-1.4,11.22,31.38,55.13,66.61,101.95,107.68,143.14,41.04,41.13,89.32,77.38,143.5,107.73,3.5,1.89,7.84,1.33,10.79-1.41l99.4-91.18,163.56,163.56-.91.88-81.27,79.23v26.71l102.36-99.83c1.75-1.74,2.73-4.08,2.74-6.59,0-2.54-.97-4.93-2.75-6.73Z"/>
  <path class="cls-1" d="M714.32,848.06l-51.18,52.66c-3.17,3.26-6.05,6.24-8.55,8.8l-80.5-83.02,80.42-77.59,80.18,78.41c-5.18,5.12-11.77,11.9-20.37,20.74Z"/>
</svg>