<?xml version="1.0" encoding="UTF-8"?>
<svg id="Camada_1" data-name="Camada 1" xmlns="http://www.w3.org/2000/svg" viewBox="0 0 1000 1000">
  <defs>
    <style>
      .cls-1 {
        fill: #c8b991;
      }

      .cls-2 {
        fill: #f8f6f0;
      }
    </style>
  </defs>
  <g>
    <path class="cls-2" d="M473.36,800.63c4.39,0,7.71-3.31,7.71-7.71v-273.82h273.83c4.39,0,7.71-3.31,7.71-7.71s-3.31-7.71-7.71-7.71h-273.83V229.85c0-4.39-3.31-7.71-7.71-7.71s-7.71,3.31-7.71,7.71v273.83l-273.77.06c-4.39,0-7.71,3.31-7.71,7.71s3.31,7.71,7.71,7.71h273.83l-.06,273.76c0,4.4,3.31,7.71,7.71,7.71Z"/>
    <polygon class="cls-2" points="741.86 175.32 741.86 158.9 100 158.9 100 863.88 846.71 863.88 846.71 289.6 830.28 289.6 830.28 847.45 116.43 847.45 116.43 175.32 741.86 175.32"/>
  </g>
  <path class="cls-1" d="M884.07,209.01l-40.03,41.18c-2.48,2.55-4.73,4.88-6.68,6.88l-62.96-64.93,62.89-60.68,62.71,61.33c-4.05,4.01-9.21,9.31-15.93,16.22Z"/>
</svg>