<?xml version="1.0" encoding="UTF-8"?>
<svg id="Camada_1" data-name="Camada 1" xmlns="http://www.w3.org/2000/svg" viewBox="0 0 1000 1000">
  <defs>
    <style>
      .cls-1 {
        fill: #c8b991;
      }

      .cls-2 {
        fill: #f8f6f0;
      }
    </style>
  </defs>
  <path class="cls-2" d="M636.9,680.47c57.46-104.35,125.95-244.04,125.95-316.98,0-145.01-117.91-262.99-262.84-262.99S237.15,218.48,237.15,363.49s251.4,527.37,253.94,531.24h0c1.87,2.94,5.13,4.72,8.73,4.76,3.7,0,7.1-1.78,9.11-4.77.62-.95,64.51-98.99,127.98-214.25ZM501.66,867.01l-1.67,2.63-1.66-2.63c-40.08-62.92-240-382.92-240-503.52,0-133.33,108.41-241.8,241.67-241.8s241.67,108.47,241.67,241.8c0,116.85-183.7,414.94-240,503.52Z"/>
  <path class="cls-1" d="M556.5,418.79l-48.38,49.77c-3,3.09-5.72,5.89-8.08,8.32l-76.08-78.47,76.01-73.34,75.78,74.11c-4.89,4.84-11.13,11.25-19.25,19.6Z"/>
</svg>