<?xml version="1.0" encoding="UTF-8"?>
<svg id="Camada_1" data-name="Camada 1" xmlns="http://www.w3.org/2000/svg" viewBox="0 0 1000 1000">
  <defs>
    <style>
      .cls-1 {
        fill: #c8b991;
      }

      .cls-2 {
        fill: #f8f6f0;
      }
    </style>
  </defs>
  <path class="cls-1" d="M240.25,516.53l-51.19,52.66c-3.17,3.26-6.05,6.24-8.55,8.8l-80.51-83.03,80.43-77.6,80.19,78.43c-5.18,5.12-11.77,11.91-20.37,20.74Z"/>
  <g>
    <path class="cls-2" d="M270.13,770.33c17.31,16.27,36.33,30.97,56.53,43.71,59.41,37.83,128.08,57.83,198.61,57.83,66.63-.78,133.37-17.68,193.03-48.87v-25.47c-128.26,69.76-266.55,68.88-379.63-2.48-66.63-41.88-116.02-102.9-142.87-176.5h-23.85c19.52,57.36,53.44,109.82,98.18,151.79Z"/>
    <path class="cls-2" d="M900,497.41c-.17-102.74-43.16-202.11-117.94-272.64-72.92-68.44-168.11-104.33-267.84-101.1-99.86,3.17-192.52,45.04-260.89,117.91-36.83,39.24-64.22,84.73-81.41,135.23h23.6c8.57-23.36,19.55-45.75,32.64-66.55,49.99-79.51,127.94-134.79,219.5-155.67,91.54-20.87,185.78-4.83,265.28,45.15,19.16,12.04,37.24,26.02,53.75,41.53,70.8,65.99,111.19,159.37,110.82,256.19v98.91c-.06,48.31-39.4,87.66-87.71,87.72-30.18,0-54.73-24.55-54.73-54.73v-312.28h-22.48v84.82l-9.7-15.49c-29.65-47.35-75.97-80.32-130.42-92.82-15.68-3.61-31.52-5.39-47.22-5.39-38.8,0-76.92,10.86-110.63,31.96-47.35,29.65-80.32,75.97-92.83,130.41-12.51,54.44-3.08,110.5,26.58,157.84,29.65,47.35,75.96,80.32,130.41,92.84,54.48,12.5,110.53,3.07,157.86-26.59,26.64-16.68,49.55-39.59,66.25-66.25l9.7-15.49v36.42c.05,42.52,34.69,77.16,77.22,77.21,60.69-.07,110.12-49.51,110.18-110.2v-98.95ZM525.93,684.08c-102.93,0-186.67-83.74-186.67-186.67s83.74-186.67,186.67-186.67,186.67,83.74,186.67,186.66c-.12,102.8-83.86,186.54-186.67,186.67Z"/>
  </g>
</svg>