<?xml version="1.0" encoding="UTF-8"?>
<svg xmlns="http://www.w3.org/2000/svg" viewBox="0 0 2100 2970">
  <defs>
    <style type="text/css">
      .v-fill { fill: #253a52; fill-opacity: 0.09; }
    </style>
  </defs>
  <g transform="translate(80, 520) rotate(-14 77 -90) scale(10.5)">
    <path
      class="v-fill"
      d="M 79.40625 1.9375 L 74.578125 1.9375 L 21.234375 -137.34375 C 17.210938 -147.800781 13.632812 -155.804688 10.5 -161.359375 C 7.363281 -166.910156 3.703125 -171.859375 -0.484375 -176.203125 L -0.484375 -176.6875 L 49.71875 -176.6875 L 49.71875 -176.203125 C 47.625 -172.660156 46.375 -167.226562 45.96875 -159.90625 C 45.570312 -152.582031 46.984375 -144.660156 50.203125 -136.140625 L 88.34375 -35 L 122.375 -124.3125 C 125.914062 -133.644531 127.925781 -141.6875 128.40625 -148.4375 C 128.894531 -155.195312 128.535156 -160.867188 127.328125 -165.453125 C 126.117188 -170.046875 124.628906 -173.628906 122.859375 -176.203125 L 122.859375 -176.6875 L 154.96875 -176.6875 L 154.96875 -176.203125 C 149.488281 -170.242188 145.097656 -164.207031 141.796875 -158.09375 C 138.503906 -151.976562 135.25 -144.335938 132.03125 -135.171875 Z M 79.40625 1.9375"
    />
  </g>
  <g transform="translate(980, 120) rotate(11 77 -90) scale(10.5)">
    <path
      class="v-fill"
      d="M 79.40625 1.9375 L 74.578125 1.9375 L 21.234375 -137.34375 C 17.210938 -147.800781 13.632812 -155.804688 10.5 -161.359375 C 7.363281 -166.910156 3.703125 -171.859375 -0.484375 -176.203125 L -0.484375 -176.6875 L 49.71875 -176.6875 L 49.71875 -176.203125 C 47.625 -172.660156 46.375 -167.226562 45.96875 -159.90625 C 45.570312 -152.582031 46.984375 -144.660156 50.203125 -136.140625 L 88.34375 -35 L 122.375 -124.3125 C 125.914062 -133.644531 127.925781 -141.6875 128.40625 -148.4375 C 128.894531 -155.195312 128.535156 -160.867188 127.328125 -165.453125 C 126.117188 -170.046875 124.628906 -173.628906 122.859375 -176.203125 L 122.859375 -176.6875 L 154.96875 -176.6875 L 154.96875 -176.203125 C 149.488281 -170.242188 145.097656 -164.207031 141.796875 -158.09375 C 138.503906 -151.976562 135.25 -144.335938 132.03125 -135.171875 Z M 79.40625 1.9375"
    />
  </g>
</svg>
