<?xml version="1.0" encoding="UTF-8"?>
<svg id="Camada_1" data-name="Camada 1" xmlns="http://www.w3.org/2000/svg" viewBox="0 0 1000 1000">
  <defs>
    <style>
      .cls-1 {
        fill: #c8b991;
      }

      .cls-2 {
        fill: #1a2433;
      }
    </style>
  </defs>
  <g>
    <g>
      <polygon points="492.29 547.26 189.65 865.97 135.97 812.42 453.99 509.06 440.54 495.63 108.85 812.05 190.09 893.09 505.74 560.68 492.29 547.26"/>
      <polygon points="829.62 395.2 811.67 413.19 584.24 186.3 602.18 168.17 540.77 106.91 347.67 300.46 409.08 361.72 427.09 343.76 460.83 377.42 473.97 364.25 427.01 317.64 408.95 334.92 374.55 300.42 540.8 133.77 575.29 168.17 557.34 186.31 811.69 440.04 829.63 421.91 864.29 456.49 698.03 623.14 663.37 588.74 681.16 570.89 633.96 523.58 620.74 536.84 654.61 570.63 636.52 588.76 698.05 650.02 891.15 456.46 829.62 395.2"/>
    </g>
    <g>
      <polygon class="cls-2" points="492.29 547.26 189.65 865.97 135.97 812.42 453.99 509.06 440.54 495.63 108.85 812.05 190.09 893.09 505.74 560.68 492.29 547.26"/>
      <polygon class="cls-2" points="829.62 395.2 811.67 413.19 584.24 186.3 602.18 168.17 540.77 106.91 347.67 300.46 409.08 361.72 427.09 343.76 460.83 377.42 473.97 364.25 427.01 317.64 408.95 334.92 374.55 300.42 540.8 133.77 575.29 168.17 557.34 186.31 811.69 440.04 829.63 421.91 864.29 456.49 698.03 623.14 663.37 588.74 681.16 570.89 633.96 523.58 620.74 536.84 654.61 570.63 636.52 588.76 698.05 650.02 891.15 456.46 829.62 395.2"/>
    </g>
  </g>
  <path class="cls-1" d="M574.1,504.51l-69.92,1.08c-4.33.07-8.27.13-11.68.18l1.57-110.1,106.4,1.78,1.32,106.79c-6.93-.03-15.94.11-27.68.28Z"/>
</svg>