<?xml version="1.0" encoding="UTF-8"?>
<svg id="Camada_1" data-name="Camada 1" xmlns="http://www.w3.org/2000/svg" viewBox="0 0 1000 1000">
  <defs>
    <style>
      .cls-1 {
        fill: #c8b991;
      }

      .cls-2 {
        fill: #1a2433;
      }
    </style>
  </defs>
  <path class="cls-1" d="M550.41,183.38l-43.04,44.28c-2.67,2.74-5.09,5.24-7.19,7.4l-67.69-69.81,67.62-65.24,67.42,65.94c-4.35,4.31-9.9,10.01-17.13,17.44Z"/>
  <g>
    <path class="cls-2" d="M500.02,499.73c-17.59,0-31.9,14.31-31.9,31.89s14.31,31.89,31.9,31.89,31.89-14.3,31.89-31.89-14.3-31.89-31.89-31.89ZM500.02,544.62c-7.28,0-13-5.71-13-12.99s5.71-13,13-13,12.99,5.71,12.99,13-5.71,12.99-12.99,12.99Z"/>
    <path class="cls-2" d="M868.01,530.39l-.09-.56c0-.41-.2-1.02-.35-1.46-.12-.37-.41-.82-.66-1.07l-.37-.48c-.21-.41-.34-.68-.61-.96-120.34-135.7-243.45-204.51-365.93-204.56h-.13c-122.4,0-245.44,68.66-365.74,204.09-.31.56-.52.97-.91,1.39l-.26.39c-.25.34-.43.59-.52.84-.12.37-.32.98-.32,1.39s-.06.86-.13,1.29c-.04.24-.09.49-.09.72,0,.55,0,1.07.13,1.46l.09.56c0,.41.2,1.01.35,1.46.12.38.4.82.66,1.07l.38.5c.19.38.32.66.59.94,121.11,136.13,244.21,205.15,365.92,205.15s245.21-69.01,365.88-205.11l1.15-1.32c.26-.34.43-.59.52-.84.13-.39.33-.99.33-1.4s.06-.86.13-1.29c.04-.24.09-.49.09-.72,0-.55,0-1.07-.13-1.46ZM844.97,532.82c-114.96,126.89-231.02,191.23-344.95,191.23s-229.95-64.34-344.96-191.23l-1.07-1.19,1.07-1.19c114.96-126.89,231.02-191.23,344.96-191.23s229.95,64.34,344.95,191.23l1.07,1.19-1.07,1.19Z"/>
    <path class="cls-2" d="M500.02,410.02c-67.05,0-121.6,54.55-121.6,121.6s54.55,121.6,121.6,121.6,121.6-54.55,121.6-121.6-54.55-121.6-121.6-121.6ZM500.02,634.33c-56.63,0-102.71-46.07-102.71-102.71s46.08-102.71,102.71-102.71,102.71,46.08,102.71,102.71-46.08,102.71-102.71,102.71Z"/>
    <path class="cls-2" d="M141.1,899.97l168.07.03v-18.96h-158.6v-167.4h-18.93v176.86c0,5.31,4.16,9.46,9.46,9.46Z"/>
    <path class="cls-2" d="M868.36,349.61v-177.72c-.41-4.9-4.4-8.63-9.43-8.63h-168.07v18.93h158.6l-.03,167.43h18.93Z"/>
    <path class="cls-2" d="M309.17,163.25h-168.03c-5.31,0-9.46,4.16-9.46,9.46v176.9h18.9v-167.43h158.59v-18.93Z"/>
    <path class="cls-2" d="M868.36,713.64h-18.93v167.43h-158.57v18.93h168.03c5.31,0,9.46-4.16,9.46-9.46v-176.9Z"/>
  </g>
</svg>