<?xml version="1.0" encoding="UTF-8"?>
<svg id="Camada_1" data-name="Camada 1" xmlns="http://www.w3.org/2000/svg" viewBox="0 0 1000 1000">
  <defs>
    <style>
      .cls-1 {
        fill: #c8b991;
      }

      .cls-2 {
        fill: #1a2433;
      }
    </style>
  </defs>
  <g>
    <path class="cls-2" d="M890.98,490.98h-381.95V100h-9.02c-220.56,0-400,179.44-400,400s179.44,400,400,400,400-179.44,400-400v-9.02h-9.02ZM500,881.96c-210.61,0-381.95-171.34-381.95-381.95S284.53,122.97,490.98,118.15v390.87h390.87c-4.81,206.46-174.26,372.93-381.85,372.93Z"/>
    <path class="cls-2" d="M897.4,453.73l-1.46-10.29c-5.74-40.51-17.69-79.08-34.74-114.81h-20.08c16.8,33.24,28.92,69.21,35.35,107.05h-312.17V123.53c32.2,5.47,63.03,15.09,92,28.16v-19.71c-31.44-13.43-64.88-22.99-99.76-27.93l-10.29-1.46v351.14h351.14Z"/>
  </g>
  <path class="cls-1" d="M819.62,236.92l-46.51,47.85c-2.88,2.97-5.5,5.67-7.77,7.99l-73.15-75.44,73.07-70.51,72.86,71.25c-4.7,4.65-10.7,10.82-18.51,18.85Z"/>
</svg>