<?xml version="1.0" encoding="UTF-8"?>
<svg id="Camada_1" data-name="Camada 1" xmlns="http://www.w3.org/2000/svg" viewBox="0 0 1000 1000">
  <defs>
    <style>
      .cls-1 {
        fill: #c8b991;
      }

      .cls-2 {
        fill: #1a2433;
      }
    </style>
  </defs>
  <path class="cls-2" d="M877.8,713.9l-176.8-176.8c-3.5-3.5-9.2-3.6-13-.2l-100.5,92.1-5.2-3c-49.7-29-93-61.9-128.7-97.7-34.9-35-66.8-77.2-97.3-128.9l-3.1-5.2.6-.7,91.3-99.6c3.3-3.7,3.2-9.4-.4-13l-176.6-176.6c-1.9-1.9-4.3-3-6.9-3h-1c-2,.3-4,1.3-5.6,2.8l-109.1,111.8c-16.8,17.3-26.1,42.7-26.1,71.6,0,98.9,80.9,243.7,206,368.8,65.8,65.8,137.6,120.1,207.8,157.2v-22.2c-66.3-36.3-135.4-89-194.6-148.2-118-118-205.6-264.35-200.4-355.6,2.29-40.2,21.09-58.2,20.8-58.2l102.4-105.1,163.6,163.6-.8.9-90.3,98.5c-2.9,3.1-3.4,7.6-1.4,11.2,31.4,55.1,66.6,102,107.7,143.1,41,41.1,89.3,77.4,143.5,107.7,3.5,1.9,7.8,1.3,10.8-1.4l99.4-91.2,163.6,163.6-.9.9-81.3,79.2v26.7l102.4-99.8c1.8-1.7,2.7-4.1,2.7-6.6s-1-4.9-2.8-6.7h.2Z"/>
  <path class="cls-1" d="M714.3,838.5l-51.2,52.7c-3.2,3.3-6.1,6.2-8.5,8.8l-80.5-83,80.4-77.6,80.2,78.4c-5.2,5.1-11.8,11.9-20.4,20.7h0Z"/>
</svg>