<?xml version="1.0" encoding="UTF-8"?>
<svg id="Camada_1" data-name="Camada 1" xmlns="http://www.w3.org/2000/svg" viewBox="0 0 1000 1000">
  <defs>
    <style>
      .cls-1 {
        fill: #c8b991;
      }

      .cls-2 {
        fill: #1a2433;
      }
    </style>
  </defs>
  <path class="cls-2" d="M841.75,595.9h-16.64v208.24h-160.22V153.42h160.22v243.79h16.64V136.78h-193.51v667.35h-56.47V264.12h-193.48v540h-56.47v-412.66h-193.49v412.66h-48.33v59.1h790.09v-59.1h-48.34v-208.22ZM414.93,280.76h160.19v523.36h-160.19V280.76ZM164.97,408.1h160.22v396.02h-160.22v-396.02ZM873.44,820.76v25.81H116.64v-25.81h756.8Z"/>
  <path class="cls-1" d="M883.11,512.19l-42.45,43.67c-2.63,2.71-5.02,5.17-7.09,7.3l-66.75-68.85,66.69-64.34,66.49,65.03c-4.29,4.25-9.76,9.87-16.89,17.2Z"/>
</svg>