<?xml version="1.0" encoding="UTF-8"?>
<svg id="Camada_1" data-name="Camada 1" xmlns="http://www.w3.org/2000/svg" viewBox="0 0 1000 1000">
  <defs>
    <style>
      .cls-1 {
        fill: #c8b991;
      }

      .cls-2 {
        fill: #1a2433;
      }
    </style>
  </defs>
  <path class="cls-2" d="M281.03,674.12l192.69-192.69.62.62,191.75,191.75c.82-.88,2.42-2.38,5.37-5.19,2.43-2.29,5.63-5.32,6.69-6.5l-192.57-192.55.61-.62,191.83-191.83c-.98-.87-2.62-2.51-5.56-5.45-2.39-2.39-5.1-5.11-6.33-6.39l-192.41,192.42-.61-.62-191.85-191.76c-.53.54-1.37,1.4-2.38,2.43-5.57,5.7-8.14,8.32-9.44,9.49l192.41,192.42-.62.62-191.95,191.87c1.81,2.23,9.65,10.53,11.75,11.99Z"/>
  <polygon class="cls-2" points="847.45 715.64 847.45 116.69 100 116.69 100 822.43 732.34 822.43 732.34 805.01 117.42 805.01 117.42 134.11 830.04 134.11 830.04 715.64 847.45 715.64"/>
  <path class="cls-1" d="M883.11,832.35l-42.44,43.66c-2.63,2.71-5.02,5.17-7.09,7.3l-66.75-68.84,66.68-64.34,66.49,65.02c-4.29,4.25-9.76,9.87-16.89,17.2Z"/>
</svg>