<?xml version="1.0" encoding="UTF-8"?>
<svg id="Camada_1" data-name="Camada 1" xmlns="http://www.w3.org/2000/svg" viewBox="0 0 1000 1000">
  <defs>
    <style>
      .cls-1 {
        fill: #c8b991;
      }

      .cls-2 {
        fill: #1a2433;
      }
    </style>
  </defs>
  <g>
    <rect class="cls-2" x="280.17" y="121.2" width="15.74" height="132.31"/>
    <rect class="cls-2" x="704.09" y="121.2" width="15.74" height="132.31"/>
    <polygon class="cls-2" points="232.32 200.53 232.32 184.79 100 184.79 100 878.8 900 878.8 900 184.79 767.68 184.79 767.68 200.53 884.26 200.53 884.26 863.07 115.74 863.07 115.74 200.53 232.32 200.53"/>
    <path class="cls-2" d="M195.39,354.36v164.11h164.11v-164.11h-164.11ZM343.76,502.73h-132.64v-132.64h132.64v132.64Z"/>
    <path class="cls-2" d="M417.94,354.36v164.11h164.11v-164.11h-164.11ZM566.32,502.73h-132.64v-132.64h132.64v132.64Z"/>
    <path class="cls-2" d="M640.51,354.36v164.11h164.11v-164.11h-164.11ZM788.88,502.73h-132.63v-132.64h132.63v132.64Z"/>
    <path class="cls-2" d="M195.39,576.92v164.11h164.11v-164.11h-164.11ZM343.76,725.29h-132.64v-132.64h132.64v132.64Z"/>
    <path class="cls-2" d="M417.94,576.92v164.11h164.11v-164.11h-164.11ZM566.32,725.29h-132.64v-132.64h132.64v132.64Z"/>
    <path class="cls-2" d="M640.51,576.92v164.11h164.11v-164.11h-164.11ZM788.88,725.29h-132.63v-132.64h132.63v132.64Z"/>
    <rect class="cls-2" x="343.76" y="184.79" width="51.5" height="15.74"/>
    <rect class="cls-2" x="604.74" y="184.79" width="51.5" height="15.74"/>
  </g>
  <path class="cls-1" d="M551.94,209.91l-44.36,45.64c-2.75,2.83-5.24,5.41-7.41,7.63l-69.77-71.96,69.7-67.25,69.49,67.96c-4.49,4.44-10.2,10.32-17.66,17.98Z"/>
</svg>