<?xml version="1.0" encoding="UTF-8"?>
<svg id="Camada_1" data-name="Camada 1" xmlns="http://www.w3.org/2000/svg" viewBox="0 0 1000 1000">
  <defs>
    <style>
      .cls-1 {
        fill: #c8b991;
      }

      .cls-2 {
        fill: #1a2433;
      }
    </style>
  </defs>
  <path class="cls-2" d="M899.74,801.95c-1.5-17.26-9.54-33.97-22.61-47.05l-165.35-165.16-12.43,12.43-31.96-31.96c9.75-14.16,18.3-29.17,25.27-44.8,48.09-107.04,24.62-234.73-58.38-317.72-53.72-53.74-125.17-83.34-201.17-83.34s-147.48,29.6-201.23,83.34c-29.81,29.82-51.53,64.68-65.33,101.84h18.12c13.04-32.73,32.76-63.4,59.21-89.86,50.56-50.54,117.77-78.37,189.24-78.37s138.65,27.83,189.18,78.37c78.06,78.05,100.11,198.13,54.89,298.82-7.48,16.77-16.77,32.83-27.62,47.72-8.16,11.21-17.34,21.92-27.28,31.87-9.83,9.87-20.57,19.05-31.91,27.31-14.83,10.83-30.85,20.13-47.61,27.65-34.66,15.55-71.6,23.44-109.77,23.44-71.48,0-138.66-27.81-189.18-78.33-24.91-24.91-43.8-53.58-56.81-84.17h-18.37c13.86,35.04,34.89,67.87,63.18,96.16,53.72,53.71,125.16,83.3,201.17,83.3,40.57,0,79.83-8.38,116.7-24.93,15.62-7.02,30.58-15.55,44.67-25.28l31.96,31.97-6.42,6.42-4.55,4.62,3.21,5.62,160.7,160.91c14.53,14.54,33.79,22.87,52.82,22.87,15.51,0,29.66-5.62,39.85-15.81l12.26-12.27c11.59-11.58,17.12-27.79,15.56-45.62ZM608.09,632.99c9.18-7.18,18.05-14.75,26.18-22.92,8.23-8.22,15.77-17.04,22.86-26.13l30.22,30.22-49.05,49.06-30.22-30.23ZM637.89,687.63l73.89-73.91,83.9,83.8-73.9,73.9-83.89-83.79ZM872.2,835.59l-12.26,12.27c-7,7-16.88,10.84-27.87,10.84-14.57,0-29.44-6.53-40.83-17.91l-57.48-57.41,73.9-73.9,57.48,57.41c10.26,10.26,16.56,23.25,17.72,36.55,1.12,12.75-2.67,24.16-10.66,32.15Z"/>
  <path class="cls-1" d="M219.67,427.84l-43.68,44.94c-2.71,2.79-5.16,5.32-7.29,7.51l-68.69-70.85,68.63-66.21,68.42,66.92c-4.42,4.37-10.04,10.16-17.38,17.7Z"/>
</svg>