<?xml version="1.0" encoding="UTF-8"?>
<svg id="Camada_1" data-name="Camada 1" xmlns="http://www.w3.org/2000/svg" viewBox="0 0 1000 1000">
  <defs>
    <style>
      .cls-1 {
        fill: #c8b991;
      }

      .cls-2 {
        fill: #1a2433;
      }
    </style>
  </defs>
  <g>
    <path class="cls-2" d="M830.94,887.55c.03,6.28,5.17,11.42,11.45,11.45,3.07,0,5.96-1.18,8.15-3.33,2.19-2.19,3.39-5.07,3.39-8.11v-137.29c0-111.64-91-202.47-202.85-202.47l-302.15-.04c-111.85,0-202.85,90.83-202.85,202.47v137.33c0,3.04,1.21,5.92,3.4,8.11,2.18,2.15,5.07,3.33,8.15,3.33,6.28-.03,11.41-5.17,11.44-11.45v-137.29c0-48,18.69-93.09,52.63-126.95,33.93-33.86,79.11-52.5,127.2-52.5h302.18c48.1,0,93.27,18.65,127.2,52.5,33.94,33.86,52.63,78.95,52.63,126.95v136.42l.03.87Z"/>
    <path class="cls-2" d="M499.97,101c-110.48,0-200.35,89.74-200.35,200.05s89.88,200.07,200.35,200.07,200.45-89.75,200.45-200.07-89.92-200.05-200.45-200.05ZM625.45,426.35c-33.48,33.44-78.05,51.86-125.49,51.86s-91.99-18.41-125.45-51.84c-33.45-33.43-51.88-77.93-51.88-125.32s18.42-91.85,51.88-125.25c33.46-33.41,78.01-51.8,125.45-51.8s92.01,18.4,125.48,51.8c33.48,33.41,51.91,77.89,51.91,125.25s-18.44,91.87-51.91,125.31Z"/>
  </g>
  <path class="cls-1" d="M562.42,834.23l-53.31,54.84c-3.3,3.4-6.3,6.5-8.9,9.16l-83.84-86.46,83.76-80.81,83.51,81.67c-5.39,5.33-12.26,12.4-21.22,21.6Z"/>
</svg>