<?xml version="1.0" encoding="UTF-8"?>
<svg id="Camada_1" data-name="Camada 1" xmlns="http://www.w3.org/2000/svg" viewBox="0 0 1000 1000">
  <defs>
    <style>
      .cls-1 {
        fill: #c8b991;
      }

      .cls-2 {
        fill: #1a2433;
      }
    </style>
  </defs>
  <path class="cls-2" d="M410.7,389.89l-1.31-3.22c-6.18-15.2-13.19-32.42-17.6-42.24-8.27-18.27-18.9-21.17-29.15-21.58-5.46-.24-11.71-.24-17.75-.24-5.48,0-19.53,1.43-31.67,14.67-.35.42-.79.86-1.4,1.47l-.26.26c-9.74,10.38-32.59,34.75-32.59,80.38,0,42.93,27.27,84,39,99.67.21.26.53.74,1.12,1.61l.43.64c44.65,66.27,100.47,115.09,157.17,137.45,55.83,22.02,79.34,24.84,93.59,24.84,5.46,0,10.01-.5,14.02-.95l3.04-.34c.8-.09,1.6-.18,2.43-.25,18.85-1.68,60.27-23.3,69.64-49.67,8.25-23.14,8.76-44.36,4.49-51.51v-.02c-3.27-5.68-8.88-8.4-16.65-12.16-1.12-.53-2.29-1.11-3.54-1.74l-1.27-.63c-3.85-1.95-53.08-26.36-62.82-29.87-6.96-2.55-21.43-7.85-32.29,8.43-5.57,8.4-22.58,28.41-27.81,34.36-2.12,2.43-2.91,2.13-7.34-.09-1.14-.6-2.49-1.2-4.13-1.92l-2.51-1.11c-12.65-5.5-36.18-15.73-63.89-40.37-24.62-21.93-41.93-49.35-48.24-60.12-.14-.23-.26-.44-.35-.61l-1.38.73.81-2.38c.21-.62,1.08-1.62,3.31-3.83,2.86-2.87,6.05-6.71,8.86-10.1l2.05-2.48c1.04-1.27,2.12-2.57,3.23-3.82,4.55-5.36,6.66-9.62,9.1-14.55.42-.85.84-1.67,1.2-2.47,3.9-7.78,3.65-16.14-.73-24.9-.69-1.41-4.46-10.57-8.79-21.33ZM402.2,426.86c-.32.61-.6,1.18-.88,1.74l-.45.94c-2.2,4.44-3.41,6.88-6.36,10.44l-4.75,5.72c-2.88,3.52-5.89,7.15-8.21,9.48-4.1,4.02-14.95,14.68-5.62,30.78,6.77,11.57,25.42,41.06,52.28,65.02,30.11,26.83,56.58,38.31,69.3,43.82l1.39.61c1.71.75,3.19,1.4,4.19,1.9,4.75,2.4,19.21,9.7,31.74-4.65,5.37-6.09,23.04-26.88,29.48-36.51,1.01-1.52,1.27-1.88,1.5-2.07l.17-.14.21-.06c.53-.14,1.52-.15,6.57,1.68,7.17,2.58,48.81,22.97,60.72,28.98l5.06,2.47c1.79.86,5.51,2.65,7.27,3.74l.43.27.04.5c.12,1.45.96,14.74-5.95,34.01-6.05,16.85-39.7,35.12-52.42,36.25-1.76.17-3.36.33-5.03.56-3.67.43-7.57.9-12.47.9-14.18,0-36.72-3.86-86.31-23.4-52.97-20.92-105.46-67.06-147.8-129.92-1.05-1.54-1.8-2.63-2.28-3.26-10.46-14.03-34.79-50.62-34.79-87.28s18.4-57.28,27.25-66.63l1.77-1.88c6.61-7.2,13.82-7.98,16.62-7.98,5.8,0,11.8,0,17.02.24,5.36.24,7.42.78,11.4,9.62,4.39,9.79,11.54,27.3,18.61,44.75l1.64,4.03c4.54,11.16,6.82,16.76,7.78,18.65,1.74,3.58,1.64,5.12.85,6.71Z"/>
  <path class="cls-2" d="M823.3,627.92c.5-1.49.94-3.01,1.36-4.48.32-1.11.64-2.22.99-3.32l.88-2.79h-21.09l-1.32,4.2c-46.37,137.54-179.54,229.93-331.38,229.94-58.69-.04-116.8-14.85-168.03-42.81-2.33-1.24-4.99-1.55-7.47-.89l-163.06,43.74c-3.51.91-7.09-.09-9.59-2.65-2.54-2.64-3.41-6.16-2.38-9.66l46.94-155.83c.81-2.7.48-5.62-.91-8-49.33-85.41-60.34-185.28-30.99-281.22,41.29-135.02,164.31-233.38,306.12-244.75,10.05-.79,20.15-1.19,30-1.19,93.66,0,181.83,36.61,248.27,103.09,37.34,37.36,65.14,81.09,82.63,129.97l.51,1.42h21.07l-.96-2.83c-18.2-53.5-48.93-102.93-88.89-142.96-38.59-38.63-83.88-67.66-134.59-86.29-41.12-15.1-84.18-22.71-128.37-22.71-10.37,0-20.8.42-31.28,1.26-150.03,12.08-280.21,116.18-323.92,259.06-15.45,50.44-20.3,102.22-14.41,153.89,5.56,49.14,20.65,95.98,44.82,139.22l.21.37-45.67,151.68c-3.2,10.63-.5,21.69,7.23,29.58,5.71,5.93,13.34,9.19,21.48,9.19,2.63,0,5.29-.35,7.92-1.04l159.2-42.68.35.18c53.29,28.22,113.43,43.13,173.91,43.13,77.42,0,151.72-22.91,214.89-66.24,64.41-44.14,111.28-105.54,135.56-177.56Z"/>
  <path class="cls-1" d="M879.69,518.8l-51.05,52.51c-3.16,3.26-6.03,6.22-8.52,8.77l-80.28-82.79,80.2-77.38,79.96,78.2c-5.16,5.11-11.74,11.87-20.31,20.69Z"/>
</svg>