<?xml version="1.0" encoding="UTF-8"?>
<svg id="Camada_1" data-name="Camada 1" xmlns="http://www.w3.org/2000/svg" viewBox="0 0 1000 1000">
  <defs>
    <style>
      .cls-1 {
        fill: #c8b991;
      }

      .cls-2 {
        fill: #1a2433;
      }
    </style>
  </defs>
  <g>
    <rect class="cls-2" x="491.64" y="127.96" width="16.72" height="115.55"/>
    <rect class="cls-2" x="100" y="501.06" width="125.33" height="16.72"/>
    <rect class="cls-2" x="774.67" y="501.06" width="125.33" height="16.72"/>
    <rect class="cls-2" x="244.15" y="203" width="16.73" height="131.21" transform="translate(-109.19 339.91) rotate(-57.92)"/>
    <rect class="cls-2" x="681.92" y="260.2" width="131.19" height="16.72" transform="translate(-28.58 437.64) rotate(-32.05)"/>
    <path class="cls-2" d="M713.86,509.42c0-117.94-95.95-213.9-213.88-213.9s-213.88,95.96-213.88,213.9c.01,70.29,34.67,136.12,92.7,176.1l.38.27v186.24h241.62v-186.24l.38-.27c58.03-39.99,92.67-105.82,92.67-176.1ZM604.08,855.31h-208.17v-14.46l.66-.17,207.51-55.23v69.87ZM604.08,768.13l-.66.17-207.51,55.24v-48.23l.66-.17,207.51-55.24v48.23ZM607.86,674.35l-3.78,2.47v25.77l-.66.17-95.07,25.32v-101.36h-16.72v105.79l-.66.17-95.06,25.3v-81.19l-3.78-2.47c-55.91-36.66-89.29-98.32-89.29-164.92.01-108.72,88.46-197.17,197.17-197.17s197.16,88.45,197.16,197.18c0,66.6-33.38,128.25-89.29,164.93Z"/>
  </g>
  <path class="cls-1" d="M551.56,540.33l-43.36,44.61c-2.69,2.77-5.13,5.28-7.24,7.45l-68.2-70.33,68.13-65.73,67.93,66.43c-4.38,4.34-9.97,10.08-17.26,17.57Z"/>
</svg>