<?xml version="1.0" encoding="UTF-8"?>
<svg id="Camada_1" data-name="Camada 1" xmlns="http://www.w3.org/2000/svg" viewBox="0 0 1000 1000">
  <defs>
    <style>
      .cls-1 {
        fill: #c8b991;
      }

      .cls-2 {
        fill: #1a2433;
      }
    </style>
  </defs>
  <g>
    <path class="cls-2" d="M473.36,802.96c4.39,0,7.71-3.31,7.71-7.71v-273.82h273.83c4.39,0,7.71-3.31,7.71-7.71s-3.31-7.71-7.71-7.71h-273.83V232.18c0-4.39-3.31-7.71-7.71-7.71s-7.71,3.31-7.71,7.71v273.83l-273.77.06c-4.39,0-7.71,3.31-7.71,7.71s3.31,7.71,7.71,7.71h273.83l-.06,273.76c0,4.4,3.31,7.71,7.71,7.71Z"/>
    <polygon class="cls-2" points="741.86 177.65 741.86 161.23 100 161.23 100 866.21 846.71 866.21 846.71 291.93 830.28 291.93 830.28 849.78 116.43 849.78 116.43 177.65 741.86 177.65"/>
  </g>
  <path class="cls-1" d="M884.07,211.34l-40.03,41.18c-2.48,2.55-4.73,4.88-6.68,6.88l-62.96-64.93,62.89-60.68,62.71,61.33c-4.05,4.01-9.21,9.31-15.93,16.22Z"/>
</svg>