<?xml version="1.0" encoding="UTF-8"?>
<svg id="Camada_1" data-name="Camada 1" xmlns="http://www.w3.org/2000/svg" viewBox="0 0 1000 1000">
  <defs>
    <style>
      .cls-1 {
        fill: #c8b991;
      }

      .cls-2 {
        fill: #1a2433;
      }
    </style>
  </defs>
  <path class="cls-1" d="M709.08,587.01l-54.18,55.74c-3.36,3.46-6.41,6.6-9.05,9.31l-85.22-87.88,85.13-82.14,84.88,83.01c-5.48,5.42-12.46,12.6-21.56,21.96Z"/>
  <g>
    <path class="cls-2" d="M534.68,660.62l-174.98,174.98c-26.24,26.24-60.92,40.69-97.65,40.69-36.73,0-71.41-14.45-97.65-40.69s-40.69-60.92-40.69-97.65,14.45-71.41,40.69-97.65l176.26-176.26c23.77-23.77,55.13-38.08,88.3-40.29,32.54-2.17,64.89,7.36,91.18,26.86l16.38-16.38c-29.05-22.45-63.69-33.5-98.22-33.5-41.42,0-82.66,15.9-113.86,47.1l-176.26,176.25c-30.43,30.44-47.2,70.87-47.2,113.86s16.76,83.43,47.2,113.86c30.43,30.43,70.87,47.19,113.86,47.19,42.99,0,83.43-16.76,113.86-47.2l174.98-174.97-16.21-16.21Z"/>
    <path class="cls-2" d="M851.8,375.91c30.43-30.43,47.2-70.87,47.2-113.86,0-42.99-16.76-83.42-47.2-113.86-30.43-30.43-70.87-47.2-113.86-47.2s-83.43,16.76-113.86,47.19l-176.28,176.28,16.21,16.21s0,0,.01-.01l176.27-176.27c26.24-26.24,60.91-40.69,97.65-40.69s71.41,14.45,97.65,40.69c26.24,26.24,40.69,60.92,40.69,97.65s-14.45,71.41-40.69,97.65l-108.27,108.27,16.21,16.21,108.27-108.27Z"/>
  </g>
</svg>